<?xml version="1.0" encoding="utf-8"?>
<!-- Generator: Adobe Illustrator 16.0.0, SVG Export Plug-In . SVG Version: 6.00 Build 0)  -->
<!DOCTYPE svg PUBLIC "-//W3C//DTD SVG 1.1//EN" "http://www.w3.org/Graphics/SVG/1.1/DTD/svg11.dtd">
<svg version="1.1" xmlns="http://www.w3.org/2000/svg" xmlns:xlink="http://www.w3.org/1999/xlink" x="0px" y="0px"
	 width="595.28px" height="841.89px" viewBox="0 0 595.28 841.89" enable-background="new 0 0 595.28 841.89" xml:space="preserve">
<g id="Layer_1" display="none">
	<path display="inline" opacity="0.3" fill="none" stroke="#000000" stroke-miterlimit="10" d="M310.932,417.788"/>
	<path display="inline" opacity="0.3" fill="none" stroke="#000000" stroke-miterlimit="10" d="M204.144,311"/>
	<path display="inline" opacity="0.3" fill="none" stroke="#000000" stroke-miterlimit="10" d="M204.144,417.789"/>
	<path display="inline" opacity="0.3" fill="none" stroke="#000000" stroke-miterlimit="10" d="M310.932,311"/>
	<path display="inline" opacity="0.3" fill="none" stroke="#000000" stroke-miterlimit="10" d="M204.144,417.788"/>
	<path display="inline" opacity="0.3" fill="none" stroke="#000000" stroke-miterlimit="10" d="M310.932,311"/>
</g>
<g id="Layer_2">
	<rect x="2.333" y="2.667" width="588" height="588"/>
	<path fill="#C9E4F7" d="M298.324,253.208l26.22,23.182v-44.042l8.835-8.772v74.174l-35.055-34.694l-35.062,34.71V223.59
		l8.834,8.772v44.042C272.096,276.405,298.325,253.183,298.324,253.208z"/>
	<polygon fill="#C9E4F7" points="180.396,381.456 180.402,368.729 145.603,403.36 145.603,105.984 136.885,97.518 137.057,424.329 	
		"/>
	<polygon fill="#C9E4F7" points="451.454,416.183 451.454,105.984 460.17,97.518 459.998,424.649 	"/>
	<polygon fill="#C9E4F7" points="400.774,365.381 400.791,352.664 362.791,314.951 362.791,194.456 354.242,203.412 
		354.245,318.876 	"/>
	<polygon fill="#C9E4F7" points="451.577,362.191 451.583,349.465 416.783,320.841 416.783,140.587 408.232,149.146 
		408.235,324.767 	"/>
	<path fill="#C9E4F7" d="M242.785,203.305l-47.119-47.119v90.151c-0.019-0.001-0.036-0.001-0.055-0.001v119.433l47.119-47.118
		v-29.35c0.019,0.004,0.036,0.006,0.055,0.009V203.305z M233.895,315.349l-29.449,29.695L204.5,176.91l29.449,29.695
		L233.895,315.349z"/>
	<polygon fill="#C9E4F7" points="216.807,366.884 298.315,285.374 379.823,366.884 	"/>
	<g>
		<g>
			<path fill="#C9E4F7" d="M225.844,405.536h5.264l5.547-9.171L250,396.519l-3.971,9.139l5.598-0.122l8.345-20.399l-21.106,0.124
				L225.844,405.536z M241.442,388.39l11.963,0.06l-1.472,3.682h-12.884L241.442,388.39z M183.279,405.629l6.014-0.062l8.589-9.264
				l18.958,0.122l7.915-10.921l-21.104-0.061L183.279,405.629z M218.066,388.328l-3.251,3.987l-12.454,0.062l3.926-4.049H218.066z
				 M305.678,385.199l1.175,20.398l4.944-0.014l-0.598-8.559l13.804,0.078l2.342,8.495h5.262l-6.191-20.337L305.678,385.199z
				 M310.831,392.93l-0.368-4.003h12.654l1.012,4.003H310.831z M404.7,400.476l-15,0.046l-3.528-4.341l13.559-0.06l-3.497-3.805
				l-13.068-0.061l-2.944-3.421l13.987,0.046l-3.267-3.405l-18.021-0.094l15.399,20.064l21.288,0.062L404.7,400.476z
				 M277.562,385.291l-4.22,0.016l-5.03,20.366l22.395-0.104l0.492-4.233l-17.179-0.031L277.562,385.291z M352.857,400.292
				l-5.521-11.043h15.215l-2.021-3.804h-20.064l9.201,20.062l21.167-0.062l-3.067-5.154H352.857z"/>
		</g>
	</g>
	<path fill="none" d="M128.615,90.155"/>
	<path fill="none" d="M459.998,421.704"/>
	<path fill="none" d="M137.366,421.622"/>
	<path fill="none" d="M468.916,90.239"/>
</g>
</svg>
